<svg id="Capa_1" enable-background="new 0 0 512 512" height="512" viewBox="0 0 512 512" width="512" xmlns="http://www.w3.org/2000/svg"><g><g><path d="m288.268 277.249h-64.536c-4.142 0-7.5 3.358-7.5 7.5s3.358 7.5 7.5 7.5h64.536c4.143 0 7.5-3.358 7.5-7.5s-3.358-7.5-7.5-7.5z"/><path d="m288.268 303.753h-64.536c-4.142 0-7.5 3.358-7.5 7.5s3.358 7.5 7.5 7.5h64.536c4.143 0 7.5-3.358 7.5-7.5s-3.358-7.5-7.5-7.5z"/><path d="m368.708 132.38c2.93-2.929 2.93-7.677.001-10.606s-7.678-2.929-10.606 0l-4.009 4.008c-10.762-9.723-22.713-17.692-35.492-23.766l2.12-5.153c1.575-3.831-.253-8.213-4.083-9.789-3.832-1.577-8.213.253-9.79 4.083l-2.11 5.13c-13.178-4.666-27.04-7.429-41.239-8.152v-5.545c0-4.142-3.357-7.5-7.5-7.5-4.142 0-7.5 3.358-7.5 7.5v5.541c-14.485.727-28.582 3.553-41.94 8.327l-2.107-5.051c-1.595-3.823-5.987-5.63-9.809-4.035-3.823 1.594-5.629 5.986-4.035 9.809l2.105 5.046c-12.587 6.033-24.332 13.905-34.9 23.465l-3.916-3.916c-2.929-2.93-7.678-2.929-10.606 0-2.929 2.929-2.929 7.678 0 10.606l3.915 3.915c-9.726 10.755-17.698 22.722-23.768 35.546l-5.058-2.08c-3.83-1.576-8.213.252-9.789 4.083s.252 8.213 4.083 9.789l5.057 2.08c-4.633 13.164-7.378 27.033-8.092 41.27h-5.532c-4.142 0-7.5 3.358-7.5 7.5s3.358 7.5 7.5 7.5h5.549c.737 14.479 3.589 28.582 8.364 41.921l-5.095 2.125c-3.823 1.594-5.63 5.986-4.035 9.809 1.592 3.818 5.98 5.632 9.809 4.035l5.102-2.128c6.059 12.659 13.918 24.434 23.401 34.93l-3.909 3.909c-2.929 2.929-2.929 7.677 0 10.606 2.928 2.929 7.677 2.929 10.606 0l3.924-3.924c5.245 4.73 10.855 9.125 16.829 13.119 7.134 4.769 17.019 2.075 20.604-5.96l5.47-12.256c2.742-6.145.744-13.378-4.751-17.199-27.947-19.43-44.866-51.296-45.259-85.243-.113-9.781 1.134-19.495 3.708-28.872 1.097-3.994-1.252-8.121-5.247-9.218-3.993-1.098-8.121 1.252-9.218 5.247-2.945 10.727-4.372 21.835-4.243 33.016.446 38.497 19.489 74.65 50.985 96.887l-4.676 10.478c-36.075-24.574-57.577-65.151-57.577-108.783 0-34.872 13.506-67.729 38.029-92.517 24.504-24.769 57.173-38.629 91.989-39.026 34.6-.404 67.466 12.659 92.573 36.756 25.112 24.103 39.48 56.409 40.458 90.967 1.269 44.838-19.946 86.661-56.811 112.12l-4.731-10.457c31.532-22.58 50.336-59.101 50.336-97.844 0-32.449-12.726-62.868-35.832-85.654-23.103-22.782-53.714-35.058-86.177-34.625-26.675.373-51.87 9.39-72.862 26.075-3.242 2.577-3.782 7.295-1.204 10.538 2.578 3.242 7.295 3.782 10.538 1.204 18.37-14.602 40.41-22.493 63.737-22.819 28.433-.397 55.213 10.367 75.435 30.307 20.226 19.945 31.364 46.571 31.364 74.974 0 34.123-16.668 66.279-44.588 86.018-5.515 3.899-7.51 11.167-4.743 17.282l5.534 12.232c3.59 7.927 13.454 10.718 20.644 5.846 5.689-3.857 11.037-8.072 16.049-12.584l3.915 3.915c2.927 2.929 7.677 2.929 10.606 0s2.929-7.678-.001-10.606l-3.9-3.899c9.671-10.684 17.664-22.66 23.755-35.561l5.055 2.08c3.831 1.577 8.214-.253 9.79-4.083 1.575-3.831-.253-8.213-4.083-9.789l-5.078-2.089c4.618-13.137 7.375-27.008 8.095-41.26h5.55c4.143 0 7.5-3.358 7.5-7.5s-3.357-7.5-7.5-7.5h-5.534c-.728-14.481-3.566-28.576-8.36-41.93l5.077-2.117c3.823-1.594 5.63-5.986 4.035-9.809s-5.984-5.63-9.809-4.035l-5.104 2.129c-6.047-12.565-13.923-24.294-23.486-34.844z"/><path d="m87.051 386.25c3.169-2.667 3.578-7.397.911-10.567-33.174-39.436-51.444-89.582-51.444-141.2 0-121.302 98.164-219.483 219.482-219.483 51.677 0 101.867 18.307 141.325 51.548 3.169 2.669 7.899 2.263 10.568-.904 2.668-3.167 2.264-7.899-.904-10.568-42.158-35.516-95.781-55.076-150.989-55.076-129.591 0-234.482 104.874-234.482 234.482 0 55.146 19.521 108.721 54.965 150.856 2.667 3.171 7.4 3.577 10.568.912z"/><path d="m490.482 234.482c0-56.649-20.475-111.339-57.651-153.996-2.723-3.123-7.461-3.448-10.582-.726-3.123 2.721-3.447 7.459-.727 10.582 34.797 39.924 53.96 91.114 53.96 144.14 0 97.98-64.211 181.074-153.105 209.258h-132.743c-28.761-9.109-54.939-23.825-77.813-43.772-3.122-2.721-7.859-2.398-10.582.724-2.722 3.122-2.398 7.86.724 10.582 14.798 12.904 30.899 23.746 48.116 32.467h-14.596c-29.71 0-53.881 24.171-53.881 53.881 0 7.929 6.45 14.379 14.379 14.379h320.04c7.929 0 14.38-6.45 14.38-14.379 0-29.71-24.171-53.881-53.881-53.881h-14.753c77.145-39.225 128.715-118.319 128.715-209.259zm-113.963 224.258c21.23 0 38.542 17.107 38.876 38.26h-318.789c.334-21.153 17.645-38.26 38.876-38.26z"/><path d="m256 40.401c-107.017 0-194.081 87.064-194.081 194.081s87.065 194.08 194.081 194.08 194.08-87.064 194.08-194.08-87.063-194.081-194.08-194.081zm0 373.161c-98.745 0-179.081-80.335-179.081-179.08s80.336-179.081 179.081-179.081 179.08 80.335 179.08 179.081-80.335 179.08-179.08 179.08z"/><path d="m255.966 261.477c14.895 0 27.012-12.117 27.012-27.012s-12.117-27.012-27.012-27.012c-6.632 0-12.71 2.407-17.416 6.388l-72.127-48.084c-3.446-2.298-8.103-1.367-10.4 2.08-2.298 3.446-1.367 8.103 2.08 10.4l72.112 48.074c-.817 2.574-1.26 5.313-1.26 8.154-.001 14.894 12.116 27.012 27.011 27.012zm0-39.024c6.624 0 12.012 5.389 12.012 12.012s-5.389 12.012-12.012 12.012-12.012-5.389-12.012-12.012c0-6.624 5.389-12.012 12.012-12.012z"/></g></g></svg>