<?xml version="1.0" encoding="iso-8859-1"?>
<!-- Generator: Adobe Illustrator 19.0.0, SVG Export Plug-In . SVG Version: 6.00 Build 0)  -->
<svg version="1.1" id="Capa_1" xmlns="http://www.w3.org/2000/svg" xmlns:xlink="http://www.w3.org/1999/xlink" x="0px" y="0px"
	 viewBox="0 0 512 512" style="enable-background:new 0 0 512 512;" xml:space="preserve">
<g>
	<g>
		<path d="M503.742,495.484H8.258c-4.564,0-8.258,3.7-8.258,8.258S3.694,512,8.258,512h495.484c4.558,0,8.258-3.7,8.258-8.258
			S508.3,495.484,503.742,495.484z"/>
	</g>
</g>
<g>
	<g>
		<path d="M421.161,55.054H90.839c-4.564,0-8.258,3.694-8.258,8.258v440.43c0,4.558,3.694,8.258,8.258,8.258
			c4.564,0,8.258-3.7,8.258-8.258V71.57h313.806v432.172c0,4.558,3.7,8.258,8.258,8.258s8.258-3.7,8.258-8.258V63.312
			C429.419,58.748,425.72,55.054,421.161,55.054z"/>
	</g>
</g>
<g>
	<g>
		<path d="M492.731,0H19.269C8.643,0,0,8.643,0,19.269v16.516C0,55.852,15.718,71.57,35.785,71.57h440.43
			C496.282,71.57,512,55.852,512,35.785V19.269C512,8.643,503.357,0,492.731,0z M495.484,35.785
			c0,10.802-8.462,19.269-19.269,19.269H35.785c-10.802,0-19.269-8.467-19.269-19.269V19.269c0-1.492,1.261-2.753,2.753-2.753
			h473.462c1.492,0,2.753,1.261,2.753,2.753V35.785z"/>
	</g>
</g>
<g>
	<g>
		<path d="M476.215,55.054c-4.558,0-8.258,3.694-8.258,8.258V256c0,4.558,3.7,8.258,8.258,8.258s8.258-3.7,8.258-8.258V63.312
			C484.473,58.748,480.773,55.054,476.215,55.054z"/>
	</g>
</g>
<g>
	<g>
		<path d="M448.688,82.581H63.312c-4.564,0-8.258,3.694-8.258,8.258c0,4.564,3.694,8.258,8.258,8.258h385.376
			c4.558,0,8.258-3.694,8.258-8.258C456.946,86.275,453.247,82.581,448.688,82.581z"/>
	</g>
</g>
<g>
	<g>
		<path d="M448.688,110.108H63.312c-4.564,0-8.258,3.694-8.258,8.258s3.694,8.258,8.258,8.258h385.376
			c4.558,0,8.258-3.694,8.258-8.258S453.247,110.108,448.688,110.108z"/>
	</g>
</g>
<g>
	<g>
		<path d="M448.688,137.634H63.312c-4.564,0-8.258,3.694-8.258,8.258s3.694,8.258,8.258,8.258h385.376
			c4.558,0,8.258-3.694,8.258-8.258S453.247,137.634,448.688,137.634z"/>
	</g>
</g>
<g>
	<g>
		<path d="M448.688,165.161H63.312c-4.564,0-8.258,3.694-8.258,8.258c0,4.564,3.694,8.258,8.258,8.258h385.376
			c4.558,0,8.258-3.694,8.258-8.258S453.247,165.161,448.688,165.161z"/>
	</g>
</g>
<g>
	<g>
		<path d="M145.892,55.054c-4.564,0-8.258,3.694-8.258,8.258v165.161c0,4.564,3.694,8.258,8.258,8.258s8.258-3.694,8.258-8.258
			V63.312C154.151,58.748,150.456,55.054,145.892,55.054z"/>
	</g>
</g>
<g>
	<g>
		<path d="M366.108,55.054c-4.558,0-8.258,3.694-8.258,8.258v165.161c0,4.564,3.7,8.258,8.258,8.258s8.258-3.694,8.258-8.258V63.312
			C374.366,58.748,370.666,55.054,366.108,55.054z"/>
	</g>
</g>
<g>
	<g>
		<path d="M256,55.054c-4.564,0-8.258,3.694-8.258,8.258v165.161c0,4.564,3.694,8.258,8.258,8.258s8.258-3.694,8.258-8.258V63.312
			C264.258,58.748,260.564,55.054,256,55.054z"/>
	</g>
</g>
<g>
	<g>
		<path d="M448.688,192.688H63.312c-4.564,0-8.258,3.694-8.258,8.258s3.694,8.258,8.258,8.258h385.376
			c4.558,0,8.258-3.694,8.258-8.258S453.247,192.688,448.688,192.688z"/>
	</g>
</g>
<g>
	<g>
		<path d="M448.688,220.215H63.312c-4.564,0-8.258,3.694-8.258,8.258c0,4.564,3.694,8.258,8.258,8.258h385.376
			c4.558,0,8.258-3.694,8.258-8.258C456.946,223.909,453.247,220.215,448.688,220.215z"/>
	</g>
</g>
<g>
	<g>
		<path d="M206.782,277.691c-3.226-3.226-8.451-3.226-11.677,0l-55.054,55.054c-3.226,3.226-3.226,8.451,0,11.677
			c1.613,1.613,3.727,2.417,5.841,2.417s4.228-0.804,5.836-2.417l55.054-55.054C210.008,286.142,210.008,280.917,206.782,277.691z"
			/>
	</g>
</g>
<g>
	<g>
		<path d="M261.836,277.691c-3.226-3.226-8.451-3.226-11.677,0L140.051,387.799c-3.226,3.226-3.226,8.451,0,11.677
			c1.613,1.613,3.727,2.417,5.841,2.417s4.228-0.804,5.836-2.417l110.108-110.107C265.062,286.142,265.062,280.917,261.836,277.691z
			"/>
	</g>
</g>
<g>
</g>
<g>
</g>
<g>
</g>
<g>
</g>
<g>
</g>
<g>
</g>
<g>
</g>
<g>
</g>
<g>
</g>
<g>
</g>
<g>
</g>
<g>
</g>
<g>
</g>
<g>
</g>
<g>
</g>
</svg>
