<svg id="Layer_3" enable-background="new 0 0 64 64" height="512" viewBox="0 0 64 64" width="512" xmlns="http://www.w3.org/2000/svg"><g><path d="m12.171 50h-2.171v-4c1.557 0 3.021-.606 4.121-1.707l1.172-1.172c1.085-1.085 1.707-2.587 1.707-4.121 0-.297-.132-.578-.36-.769l-4.621-3.851 4.297-1.433c.409-.135.684-.516.684-.947v-5h5c.552 0 1-.447 1-1 0-2.201-.857-4.271-2.414-5.828l-3.586-3.586v-6.562c.441.054.852.243 1.172.562l4.121 4.121c.191.191.447.293.707.293.129 0 .259-.024.383-.076.373-.154.617-.52.617-.924v-2.228c0-4.465-2.809-8.519-6.99-10.087-1.214-.455-2.487-.685-3.782-.685h-12.228v2h12.228c1.055 0 2.091.188 3.08.559 3.345 1.255 5.612 4.464 5.69 8.025l-2.412-2.412c-.756-.756-1.761-1.172-2.829-1.172h-15.757v2h14v7c0 .266.105.52.293.707l3.879 3.879c.939.94 1.543 2.127 1.749 3.414h-4.921c-.552 0-1 .447-1 1v5.279l-5.316 1.772c-.344.114-.599.406-.666.763-.067.356.063.722.342.954l5.613 4.678c-.101.848-.487 1.654-1.094 2.261l-1.172 1.172c-.723.723-1.685 1.121-2.707 1.121h-9v2h7v4h-7v2h11.171c1.557 0 3.021.606 4.122 1.707s1.707 2.564 1.707 4.121v5.172h2v-5.172c0-2.092-.814-4.058-2.293-5.535-1.479-1.479-3.445-2.293-5.536-2.293z"/><path d="m52 27h-20c-.552 0-1 .447-1 1v1h-3c-.552 0-1 .447-1 1v1h-5c-1.654 0-3 1.346-3 3s1.346 3 3 3h5v1c0 .553.448 1 1 1h3v23c0 .553.448 1 1 1h20c.552 0 1-.447 1-1v-34c0-.553-.448-1-1-1zm-30 8c-.551 0-1-.448-1-1s.449-1 1-1h5v2zm7 2v-6h2v6zm22 24h-18v-32h18z"/><path d="m36 43h12c.552 0 1-.447 1-1v-10c0-.553-.448-1-1-1h-12c-.552 0-1 .447-1 1v10c0 .553.448 1 1 1zm1-10h10v8h-10z"/><path d="m35 45h14v2h-14z"/><path d="m36 59h4c.552 0 1-.447 1-1v-8c0-.553-.448-1-1-1h-4c-.552 0-1 .447-1 1v8c0 .553.448 1 1 1zm1-8h2v6h-2z"/><path d="m48 49h-4c-.552 0-1 .447-1 1v8c0 .553.448 1 1 1h4c.552 0 1-.447 1-1v-8c0-.553-.448-1-1-1zm-1 8h-2v-6h2z"/><path d="m53 17v2c4.411 0 8 3.589 8 8h2c0-5.514-4.486-10-10-10z"/><path d="m53 21v2c2.206 0 4 1.794 4 4h2c0-3.309-2.691-6-6-6z"/></g></svg>