<svg id="Outline" height="512" viewBox="0 0 64 64" width="512" xmlns="http://www.w3.org/2000/svg"><path d="m61.71 20-11.32-11.34a1 1 0 0 0 -.28-.2l-13.43-6.36a1 1 0 0 0 -1.14.19l-7.77 7.78a1 1 0 0 0 -.3.71 1 1 0 0 0 .3.71l15.23 15.2-32.9 32.9-5.69-5.66 30.78-30.78a1 1 0 0 0 -1.41-1.41l-31.49 31.48a1 1 0 0 0 0 1.42l7.07 7.07a1.05 1.05 0 0 0 .71.29 1 1 0 0 0 .71-.29l33.6-33.61 4.62 4.6a1 1 0 0 0 1.41 0l11.3-11.32a1 1 0 0 0 0-1.38zm-12 10.61-19.8-19.8 6.57-6.57 12.64 6 10.47 10.44z"/><path d="m10.94 29a3 3 0 0 0 2.12-.88l.71-.71 5 5a1 1 0 0 0 1.41 0 1 1 0 0 0 0-1.41l-5-5 2.82-2.82 5 5a1 1 0 0 0 .71.29 1 1 0 0 0 .7-.29 1 1 0 0 0 0-1.41l-5-5 .71-.71a3 3 0 0 0 0-4.24 3.06 3.06 0 0 0 -4.24 0l-7.06 7.07a3 3 0 0 0 2.12 5.11zm-.71-3.71 7.07-7.07a1 1 0 0 1 1.71.71 1 1 0 0 1 -.29.7l-7.08 7.08a1 1 0 0 1 -1.41 0 1 1 0 0 1 0-1.41z"/><path d="m43.65 46.07a.83.83 0 0 0 -.19-.26l-6.27-6.27a1 1 0 0 0 -1.41 1.46l6.16 6.16 2.82 5.65-5.65-2.82-6.11-6.21a1 1 0 0 0 -1.41 1.41l6.27 6.27a.83.83 0 0 0 .26.19l8.48 4.24a.93.93 0 0 0 .4.11 1 1 0 0 0 .71-.29 1 1 0 0 0 .18-1.16z"/></svg>