<svg id="Layer_5" enable-background="new 0 0 64 64" height="512" viewBox="0 0 64 64" width="512" xmlns="http://www.w3.org/2000/svg"><g><path d="m52 21h-9v-10h5c4.963 0 9-4.038 9-9v-1h-50v1c0 4.962 4.037 9 9 9h5v10h-9c-6.065 0-11 4.935-11 11s4.935 11 11 11h40c6.065 0 11-4.935 11-11s-4.935-11-11-11zm-36-12c-3.521 0-6.442-2.612-6.929-6h45.857c-.486 3.388-3.407 6-6.928 6zm25 2v10h-18v-10zm11 30h-40c-4.963 0-9-4.037-9-9 0-4.962 4.037-9 9-9h40c4.963 0 9 4.038 9 9 0 4.963-4.037 9-9 9z"/><path d="m56 29c-1.654 0-3 1.346-3 3s1.346 3 3 3 3-1.346 3-3-1.346-3-3-3zm0 4c-.552 0-1-.449-1-1s.448-1 1-1 1 .449 1 1-.448 1-1 1z"/><path d="m48 29c-1.654 0-3 1.346-3 3s1.346 3 3 3 3-1.346 3-3-1.346-3-3-3zm0 4c-.552 0-1-.449-1-1s.448-1 1-1 1 .449 1 1-.448 1-1 1z"/><path d="m40 29c-1.654 0-3 1.346-3 3s1.346 3 3 3 3-1.346 3-3-1.346-3-3-3zm0 4c-.552 0-1-.449-1-1s.448-1 1-1 1 .449 1 1-.448 1-1 1z"/><path d="m24 27h-14c-1.654 0-3 1.346-3 3v4c0 1.654 1.346 3 3 3h14c1.654 0 3-1.346 3-3v-4c0-1.654-1.346-3-3-3zm1 7c0 .552-.448 1-1 1h-14c-.552 0-1-.448-1-1v-4c0-.551.448-1 1-1h14c.552 0 1 .449 1 1z"/><path d="m32 61c-4.541 0-8.81-1.769-12.021-4.979l-1.414 1.414c3.589 3.588 8.36 5.565 13.435 5.565s9.846-1.977 13.435-5.565l-1.414-1.414c-3.211 3.21-7.48 4.979-12.021 4.979z"/><path d="m21.394 54.606c2.833 2.833 6.599 4.394 10.606 4.394s7.773-1.561 10.606-4.394l-1.414-1.414c-2.455 2.455-5.719 3.808-9.192 3.808s-6.737-1.353-9.192-3.808z"/><path d="m24.222 51.778c2.145 2.145 4.961 3.217 7.778 3.217s5.634-1.072 7.778-3.217l-1.414-1.414c-3.51 3.51-9.219 3.51-12.729 0z"/><path d="m37.657 48.657-1.414-1.414c-2.34 2.338-6.146 2.338-8.486 0l-1.414 1.414c1.56 1.56 3.608 2.339 5.657 2.339s4.098-.779 5.657-2.339z"/></g></svg>