<svg height="512" viewBox="0 0 512 512" width="512" xmlns="http://www.w3.org/2000/svg"><g id="outline"><path d="m62.159 469.621a21.941 21.941 0 0 0 21.701 18.379h344.28a21.942 21.942 0 0 0 21.7-18.385l46.05-276.3a8 8 0 0 0 -7.89-9.315h-160v-122a38.043 38.043 0 0 0 -38-38h-68a38.043 38.043 0 0 0 -38 38v122h-160a8 8 0 0 0 -7.892 9.315zm121.841-142.6c-7.36 2.888-13.137 6.628-18.756 10.27-10.522 6.819-19.61 12.709-38.844 12.709s-28.329-5.892-38.853-12.714c-8.631-5.6-18.293-11.842-33.6-14.249l-5.433-32.6c13.67 1.479 21.5 6.55 30.336 12.278 11.05 7.163 23.585 15.285 47.55 15.285s36.493-8.119 47.546-15.283c3.329-2.157 6.569-4.244 10.054-6.087zm250.06 139.958a5.99 5.99 0 0 1 -5.92 5.021h-344.28a5.988 5.988 0 0 1 -5.919-5.015l-21.174-127.074c8.9 2.266 15.14 6.3 22.077 10.8 11.056 7.167 23.586 15.289 47.556 15.289s36.493-8.119 47.546-15.283c3.329-2.157 6.569-4.244 10.054-6.087v57.37a38.043 38.043 0 0 0 38 38h68a38.043 38.043 0 0 0 38-38v-41.023c7.357-2.889 13.133-6.627 18.751-10.267 10.525-6.82 19.616-12.71 38.849-12.71s28.323 5.89 38.845 12.71c7.256 4.7 15.313 9.916 26.848 12.869zm19.875-119.249c-8.217-2.313-14.156-6.148-20.788-10.446-11.047-7.164-23.581-15.284-47.547-15.284s-36.494 8.119-47.549 15.282c-3.329 2.157-6.567 4.243-10.051 6.085v-30.39c7.357-2.889 13.133-6.627 18.751-10.267 10.525-6.82 19.616-12.71 38.849-12.71s28.324 5.891 38.847 12.713c8.839 5.729 18.7 12.092 34.593 14.387zm24.622-147.73-16.888 101.326c-12.558-1.718-20.056-6.554-28.519-12.039-11.05-7.166-23.584-15.287-47.55-15.287s-36.494 8.119-47.549 15.282c-3.329 2.157-6.567 4.243-10.051 6.085v-95.367zm-278.557-138a22.025 22.025 0 0 1 22-22h68a22.025 22.025 0 0 1 22 22v340a22.025 22.025 0 0 1 -22 22h-68a22.025 22.025 0 0 1 -22-22zm-16 138v79.021c-7.36 2.888-13.137 6.628-18.756 10.27-10.522 6.819-19.61 12.709-38.844 12.709s-28.324-5.892-38.848-12.713c-10.126-6.563-21.5-13.923-41.749-15.115l-12.36-74.172z"/><path d="m253.177 407.9q1.44.1 2.868.1a39.6 39.6 0 0 0 27.243-10.754 39.989 39.989 0 0 0 -3.288-61.235v-48.011h16a8 8 0 0 0 0-16h-16v-16h8a8 8 0 0 0 0-16h-8v-16h16a8 8 0 0 0 0-16h-16v-16h16a8 8 0 0 0 0-16h-16v-16h8a8 8 0 0 0 0-16h-8v-16h16a8 8 0 0 0 0-16h-16v-32a24 24 0 0 0 -48 0v256a40 40 0 0 0 21.177 71.9zm19.194-22.352a24 24 0 1 1 -28.364-38.335 8 8 0 0 0 3.993-6.921v-100.292h16v100.292a8 8 0 0 0 3.993 6.924 24.093 24.093 0 0 1 12.007 20.784 23.767 23.767 0 0 1 -7.629 17.55zm-16.371-313.548a8.009 8.009 0 0 1 8 8v144h-16v-144a8.009 8.009 0 0 1 8-8z"/><path d="m104 384h16v16h-16z"/><path d="m144 408h16v16h-16z"/><path d="m104 440h16v16h-16z"/><path d="m344 376h16v16h-16z"/><path d="m400 392h16v16h-16z"/><path d="m368 432h16v16h-16z"/></g></svg>